<?xml version="1.0" standalone="no"?>
<!DOCTYPE svg PUBLIC "-//W3C//DTD SVG 20010904//EN"
 "http://www.w3.org/TR/2001/REC-SVG-20010904/DTD/svg10.dtd">
<svg version="1.0" xmlns="http://www.w3.org/2000/svg"
 width="600.000000pt" height="337.000000pt" viewBox="0 0 600.000000 337.000000"
 preserveAspectRatio="xMidYMid meet">
<g transform="translate(0.000000,337.000000) scale(0.100000,-0.100000)"
fill="#000000" stroke="#000000" stroke-width="50" stroke-linejoin="round">
<path d="M3838 2861 c-14 -5 -39 -17 -56 -26 -25 -15 -35 -16 -62 -6 -42 14
-115 14 -143 0 -12 -6 -34 -23 -49 -37 -24 -22 -36 -25 -80 -24 -64 3 -106
-20 -142 -77 -17 -26 -35 -41 -55 -46 -34 -7 -78 -53 -87 -91 -4 -14 -19 -31
-35 -40 -16 -8 -39 -28 -51 -44 -19 -26 -28 -30 -72 -30 -28 0 -70 -9 -93 -19
-37 -17 -45 -18 -80 -6 -47 17 -90 18 -131 4 -25 -8 -37 -7 -72 11 -47 24
-121 28 -172 10 -29 -11 -39 -10 -73 9 -49 26 -125 27 -179 3 -38 -17 -41 -17
-99 2 -51 17 -67 18 -113 8 -30 -6 -75 -26 -101 -44 -46 -31 -52 -33 -124 -30
-90 5 -129 -10 -185 -68 -29 -29 -48 -40 -83 -45 -90 -13 -149 -51 -196 -125
-17 -26 -34 -40 -56 -45 -49 -11 -115 -78 -134 -136 -13 -38 -26 -56 -56 -75
-47 -29 -85 -84 -98 -142 -5 -24 -11 -45 -13 -46 -1 -1 -20 -13 -40 -25 -50
-30 -85 -73 -100 -124 -6 -23 -31 -63 -54 -88 -43 -48 -62 -99 -49 -138 4 -14
-5 -36 -29 -72 -49 -69 -52 -133 -11 -206 20 -36 23 -52 18 -98 -7 -69 8 -105
60 -151 23 -19 50 -53 62 -76 26 -51 59 -77 110 -85 29 -5 51 -19 90 -58 94
-95 108 -97 755 -81 198 5 334 5 367 -1 41 -8 59 -7 80 4 24 12 31 12 53 0 14
-8 52 -17 86 -21 53 -6 63 -4 79 14 l18 20 29 -29 c22 -23 41 -31 86 -36 86
-10 226 12 300 46 34 16 66 29 71 29 5 0 11 6 14 13 3 9 43 12 153 12 82 1
208 8 279 17 72 9 180 19 242 23 61 3 133 12 160 20 26 8 49 15 49 15 1 0 7
-13 13 -29 22 -51 81 -96 166 -126 98 -35 157 -36 214 -4 40 22 101 98 101
125 0 6 16 23 35 38 24 19 36 38 41 64 4 20 15 48 26 61 10 13 25 48 34 78 13
45 22 56 52 72 52 27 107 87 133 146 35 77 33 200 -4 279 -15 33 -48 81 -72
107 -25 27 -45 52 -45 57 0 4 16 23 35 42 41 39 58 92 49 147 -4 30 -1 44 14
63 l19 24 79 -36 c112 -50 200 -70 314 -69 156 0 301 51 385 135 55 56 60 93
16 152 -73 102 -194 161 -471 229 -128 32 -261 73 -277 87 -7 6 -13 22 -13 37
0 34 -31 84 -69 112 -19 14 -31 32 -31 46 0 67 -61 136 -130 148 -33 5 -43 13
-56 40 -20 42 -61 84 -94 97 -14 5 -45 10 -70 10 -35 0 -51 6 -77 29 -61 53
-111 72 -198 75 -44 2 -92 0 -107 -5z m207 -65 c28 -13 63 -37 79 -55 26 -27
34 -30 66 -25 26 4 51 0 84 -15 39 -17 51 -28 69 -70 20 -45 25 -50 64 -56 70
-10 123 -70 123 -139 0 -17 10 -31 31 -43 52 -31 91 -113 53 -113 -31 0 34
-42 112 -71 40 -16 156 -52 256 -80 217 -59 327 -109 386 -173 53 -57 54 -83
5 -126 -144 -127 -429 -149 -649 -50 l-61 27 -1 62 c0 33 1 61 4 61 3 0 19 -8
37 -17 56 -30 182 -24 306 15 120 37 180 40 251 13 66 -25 64 -7 -2 24 -70 33
-146 32 -263 0 -50 -14 -117 -28 -150 -31 -75 -8 -172 10 -200 36 l-21 20 4
-63 c4 -69 -15 -123 -57 -161 -18 -16 -20 -26 -15 -72 8 -64 -7 -106 -47 -135
-24 -17 -29 -28 -29 -60 0 -51 -20 -97 -55 -129 -16 -14 -25 -20 -22 -14 4 6
16 72 28 145 13 82 32 163 51 209 49 123 48 199 -4 273 -20 27 -20 29 -2 42
17 13 14 14 -34 15 -43 0 -58 5 -77 25 -14 13 -25 29 -25 36 0 6 -13 -3 -28
-19 -34 -36 -71 -48 -110 -34 -27 9 -30 7 -50 -32 -29 -54 -53 -68 -115 -68
-39 1 -57 -5 -79 -23 -65 -55 -154 -51 -215 10 -22 22 -47 36 -73 40 -57 10
-97 46 -107 98 -8 40 -10 42 -51 48 -50 6 -78 31 -97 85 -8 21 -14 34 -15 27
0 -21 -31 -43 -58 -43 -15 0 -42 9 -60 20 -42 26 -48 25 -28 -5 20 -30 20 -35
1 -35 -9 0 -35 -19 -58 -43 -70 -70 -77 -114 -48 -327 5 -41 7 -121 4 -178 -5
-89 -8 -101 -20 -89 -21 21 -33 84 -22 120 7 26 5 37 -11 59 -35 47 -41 74
-28 128 11 47 10 52 -12 75 l-23 25 23 25 c29 31 24 31 -71 1 -202 -65 -392
-51 -560 40 -47 26 -149 123 -149 142 0 19 93 94 143 116 75 33 121 43 337 71
106 14 211 30 234 36 71 18 156 51 156 60 0 11 -3 11 -37 -2 l-28 -10 24 25
c12 13 35 29 50 35 17 8 34 29 48 60 22 47 53 71 92 71 11 0 24 12 31 30 7 17
26 42 43 56 26 22 38 25 87 22 54 -3 59 -1 99 35 22 20 51 37 64 38 41 2 72
-3 98 -16 23 -12 31 -11 84 16 76 38 166 40 240 5z m-1918 -402 c39 -14 44
-14 84 7 54 27 135 23 179 -9 27 -20 31 -21 64 -7 45 19 114 19 157 1 l34 -14
-40 -7 c-82 -14 -191 -47 -238 -72 -67 -37 -127 -104 -127 -143 0 -92 177
-220 361 -260 80 -18 256 -8 338 18 l64 21 18 -22 c11 -13 17 -30 13 -42 -18
-65 -16 -110 9 -147 20 -28 25 -49 25 -90 -1 -61 16 -99 61 -142 17 -17 31
-37 31 -45 0 -39 54 -127 112 -185 94 -92 298 -252 354 -278 71 -32 177 -30
264 5 35 14 66 24 69 22 2 -3 -5 -15 -17 -28 -26 -28 -55 -95 -48 -113 3 -7
-9 -41 -27 -76 -18 -35 -36 -74 -42 -88 -14 -35 -72 -49 -265 -60 -91 -6 -226
-19 -301 -30 -120 -18 -170 -19 -217 -4 -10 3 -9 10 3 33 19 37 19 45 1 38
-24 -10 -27 6 -5 29 18 19 19 25 7 43 -9 15 -10 23 -1 32 9 9 8 18 -5 37 -15
23 -15 25 2 37 16 12 16 14 0 23 -15 8 -14 11 7 26 l23 16 -22 0 c-12 0 -22 5
-22 10 0 6 11 10 24 10 13 0 26 4 28 8 2 5 48 -2 103 -14 100 -24 249 -32 259
-15 3 4 -23 11 -57 14 -34 4 -118 20 -187 37 -121 30 -159 32 -188 7 -7 -6
-25 -12 -40 -13 -139 -13 -217 -36 -234 -68 l-13 -24 -90 52 c-97 57 -135 99
-135 150 0 17 7 41 15 53 11 16 14 34 9 63 -6 34 -3 45 16 65 14 15 21 31 17
44 -3 13 3 31 16 47 11 15 21 38 22 53 0 14 4 37 8 51 l8 25 -20 -24 c-12 -13
-21 -32 -21 -43 0 -11 -11 -33 -25 -50 -14 -16 -25 -39 -25 -50 0 -11 -9 -31
-20 -46 -14 -17 -20 -39 -19 -66 1 -23 -6 -54 -15 -71 -18 -35 -20 -63 -6
-101 10 -25 9 -26 -12 -20 -68 18 -159 28 -222 24 l-71 -5 77 77 c180 179 226
425 122 645 -37 77 -120 165 -192 203 -60 32 -179 68 -189 58 -3 -3 3 -8 13
-12 166 -53 286 -155 334 -282 79 -210 35 -416 -124 -577 -111 -113 -179 -137
-415 -151 -88 -5 -118 -10 -106 -17 36 -20 181 -19 370 2 259 30 352 19 520
-58 75 -35 183 -116 170 -129 -3 -3 -14 3 -25 13 -18 16 -20 16 -26 2 -5 -13
-10 -14 -25 -6 -15 7 -21 6 -25 -6 -4 -9 -19 -15 -40 -15 -23 0 -34 -5 -34
-14 0 -22 -40 -46 -66 -40 -21 5 -23 3 -18 -28 3 -18 0 -40 -5 -48 -8 -12 -14
-11 -37 10 -24 22 -26 23 -21 5 12 -42 19 -95 12 -95 -3 0 -16 5 -27 11 -20
11 -21 9 -15 -20 8 -38 -2 -39 -41 -6 -36 30 -45 31 -37 5 9 -30 -10 -24 -54
15 -21 19 -40 35 -43 35 -2 0 -4 -12 -3 -27 0 -24 -4 -28 -33 -31 -21 -2 -46
5 -68 19 -35 21 -36 21 -30 3 6 -19 3 -20 -76 -11 -47 5 -187 5 -318 0 -328
-11 -487 -10 -535 6 -120 39 -170 127 -133 231 6 19 46 79 89 135 82 108 132
196 127 223 -2 11 -14 -1 -36 -36 -28 -46 -35 -51 -52 -42 -30 16 -50 51 -50
88 0 24 -8 41 -29 60 -38 35 -51 70 -51 140 l-1 57 -15 -29 c-24 -44 -15 -135
18 -178 14 -18 28 -53 31 -78 4 -35 14 -53 42 -78 l36 -33 -55 -65 c-78 -91
-106 -144 -113 -209 -5 -48 -8 -55 -28 -55 -34 0 -73 37 -86 80 -8 27 -22 46
-45 59 -55 32 -68 62 -60 136 6 57 4 67 -19 101 -39 57 -35 119 11 179 31 41
35 52 29 84 -8 49 5 81 54 129 25 24 41 50 41 64 0 30 32 81 65 104 70 49 83
65 95 111 14 59 46 102 94 128 29 16 39 29 51 72 18 60 77 119 132 129 26 5
38 15 52 43 37 71 117 121 195 121 24 0 42 10 76 45 60 61 120 81 193 65 l54
-12 47 36 c26 20 60 39 74 42 15 3 32 7 37 8 18 5 69 -4 112 -20z m873 15 c0
6 8 11 18 11 16 -1 16 -2 -1 -15 -20 -14 -47 -10 -47 7 0 6 6 5 15 -2 10 -9
15 -9 15 -1z m-40 -14 c0 -9 -6 -12 -16 -8 -13 5 -13 7 -2 14 17 11 18 11 18
-6z m-145 -8 c16 -13 14 -15 -25 -21 -24 -4 -68 -9 -98 -12 -47 -4 -54 -3 -44
9 7 8 8 18 4 22 -4 5 0 6 8 3 9 -3 33 -2 55 2 61 12 80 11 100 -3z m35 -2 c7
-9 8 -15 2 -15 -5 0 -12 7 -16 15 -3 8 -4 15 -2 15 2 0 9 -7 16 -15z m70 5 c0
-5 -5 -10 -11 -10 -5 0 -7 5 -4 10 3 6 8 10 11 10 2 0 4 -4 4 -10z m503 -268
c18 -17 48 -34 67 -39 29 -8 36 -15 43 -46 12 -50 66 -97 112 -97 26 0 43 -9
70 -36 41 -40 90 -64 135 -64 36 0 96 23 123 48 13 11 37 17 72 18 62 0 98 20
127 70 18 31 24 34 50 29 20 -5 41 0 69 15 35 18 44 19 58 8 9 -8 33 -21 54
-31 78 -35 100 -134 53 -245 -35 -83 -54 -154 -71 -270 -19 -126 -46 -183
-117 -247 -53 -47 -198 -132 -198 -116 0 5 7 14 15 21 8 7 15 16 15 21 0 4
-33 -16 -73 -44 -162 -117 -292 -140 -419 -76 -24 12 -85 64 -136 116 -52 52
-89 85 -82 73 19 -35 8 -32 -48 13 -69 55 -118 126 -143 207 -17 56 -19 80
-13 180 5 86 2 145 -11 234 -20 138 -14 174 38 233 63 71 151 82 210 25z
m1130 -729 c97 -141 81 -319 -38 -425 l-30 -27 -5 37 c-6 43 -7 42 -51 -87
-16 -46 -35 -94 -43 -106 -8 -12 -20 -40 -27 -63 -12 -42 -29 -57 -29 -26 0
13 -3 14 -15 4 -12 -10 -15 -7 -21 17 -10 40 -14 45 -29 33 -10 -8 -17 -6 -28
10 -11 16 -21 20 -36 15 -12 -3 -21 -2 -21 3 0 6 -9 8 -20 5 -20 -5 -80 44
-80 66 0 6 -12 8 -30 5 -23 -5 -30 -3 -30 10 0 19 -4 20 -32 5 -18 -9 -19 -8
-13 10 7 23 -4 28 -23 9 -24 -24 -12 19 16 58 16 22 32 51 35 66 6 23 27 37
130 86 128 62 200 116 232 176 11 19 31 40 46 46 33 14 86 65 94 91 9 28 19
24 48 -18z m-566 -358 c-9 -7 -13 -16 -9 -21 4 -4 -1 -2 -11 6 -18 13 -18 15
-1 27 9 7 21 10 27 6 6 -4 3 -11 -6 -18z m-1850 -15 c1 -13 -4 -20 -16 -20
-29 0 -33 13 -9 27 13 7 23 12 23 13 1 0 1 -9 2 -20z m373 -41 c0 -17 -3 -18
-21 -9 -16 9 -18 14 -9 26 15 17 30 9 30 -17z m493 -74 c-2 -5 -46 -13 -99
-17 -54 -4 -100 -11 -103 -15 -9 -12 -41 -15 -41 -4 0 5 5 13 10 16 6 4 7 11
4 17 -4 7 -2 8 5 4 6 -4 8 -12 5 -18 -5 -8 -1 -9 12 -4 72 29 212 43 207 21z
m3 -59 c-3 -14 -2 -28 4 -31 14 -8 13 -78 -1 -109 -9 -20 -9 -29 1 -41 10 -12
9 -20 -5 -41 -13 -21 -22 -25 -43 -19 -15 4 -27 7 -28 8 -18 34 -75 105 -119
149 -32 32 -56 60 -53 63 8 8 180 43 217 44 30 1 33 -1 27 -23z m-264 -3 c-6
-3 -9 -10 -6 -15 4 -7 2 -8 -5 -4 -9 6 -9 11 0 22 6 8 15 12 18 8 3 -4 0 -9
-7 -11z m1305 -22 c71 -33 72 -47 3 -153 -95 -149 -83 -138 -120 -103 -42 40
-63 82 -57 114 3 14 20 56 37 94 30 62 34 67 63 67 18 0 51 -9 74 -19z m-1296
-113 c49 -62 92 -145 85 -163 -6 -17 -89 -34 -201 -42 -88 -6 -91 -5 -123 22
-50 42 -58 62 -31 84 14 11 23 30 24 47 0 22 5 30 22 32 13 2 31 13 40 25 21
26 66 44 110 46 28 1 39 -7 74 -51z m51 4 c60 -64 102 -132 90 -144 -6 -6 -20
10 -39 44 -17 29 -50 74 -73 101 -55 62 -36 61 22 -1z m1418 29 c0 -5 9 -12
19 -16 11 -3 28 -20 38 -38 19 -32 19 -32 -8 -88 -38 -78 -67 -99 -139 -99
-31 0 -59 3 -62 6 -4 3 4 36 16 72 13 37 29 91 35 120 l13 52 44 0 c24 0 44
-4 44 -9z m-3237 -84 c-3 -5 -10 -4 -15 1 -6 6 -7 16 -3 22 6 9 9 9 16 -1 4
-7 5 -17 2 -22z m3080 -56 c-15 -39 -34 -71 -40 -71 -7 0 -13 3 -13 6 0 10 74
144 77 140 2 -2 -9 -35 -24 -75z m-213 65 c0 -2 -7 -7 -16 -10 -8 -3 -12 -2
-9 4 6 10 25 14 25 6z m-904 -88 c4 -7 4 -10 -1 -6 -4 4 -14 0 -21 -10 -12
-15 -12 -15 -7 6 6 24 18 29 29 10z m-1851 -28 c3 -6 -1 -7 -9 -4 -18 7 -21
14 -7 14 6 0 13 -4 16 -10z m1349 -5 c-4 -8 -13 -15 -22 -15 -13 0 -12 3 4 15
24 18 25 18 18 0z m419 -10 c-3 -9 -8 -14 -10 -11 -3 3 -2 9 2 15 9 16 15 13
8 -4z m1146 -19 c10 -12 9 -14 -5 -12 -10 2 -20 8 -22 14 -5 17 13 15 27 -2z"/>
<path d="M2433 2204 c-60 -22 -54 -34 9 -17 79 20 131 8 325 -76 100 -43 172
-49 262 -22 39 12 71 23 71 24 0 2 -55 3 -122 2 l-123 0 -115 49 c-97 41 -127
50 -190 52 -50 3 -89 -1 -117 -12z"/>
<path d="M2326 1938 c3 -5 10 -6 15 -3 13 9 11 12 -6 12 -8 0 -12 -4 -9 -9z"/>
<path d="M1101 1787 c-8 -10 -7 -14 2 -14 8 0 14 6 14 14 0 7 -1 13 -2 13 -2
0 -8 -6 -14 -13z"/>
<path d="M2589 1513 c-13 -16 -12 -17 4 -4 16 13 21 21 13 21 -2 0 -10 -8 -17
-17z"/>
<path d="M2590 1326 c0 -2 8 -10 18 -17 15 -13 16 -12 3 4 -13 16 -21 21 -21
13z"/>
<path d="M2175 1200 c-4 -6 1 -7 11 -3 13 5 15 3 9 -7 -5 -9 -4 -11 4 -6 6 4
9 12 6 17 -8 12 -22 12 -30 -1z"/>
<path d="M1046 1012 c-3 -5 1 -9 9 -9 8 0 12 4 9 9 -3 4 -7 8 -9 8 -2 0 -6 -4
-9 -8z"/>
<path d="M3091 823 c7 -12 15 -20 18 -17 3 2 -3 12 -13 22 -17 16 -18 16 -5
-5z"/>
<path d="M3234 1837 c6 -26 5 -28 -16 -21 -22 6 -22 6 -5 -13 21 -24 23 -40 2
-23 -9 7 -15 8 -15 2 0 -26 57 -47 144 -52 81 -6 91 -8 112 -34 28 -32 33 -12
9 34 -18 35 -62 60 -105 60 -42 0 -94 23 -115 51 l-17 24 6 -28z m116 -70 c10
3 11 2 3 -4 -16 -11 -82 -8 -95 5 -22 22 3 30 39 12 20 -10 44 -16 53 -13z"/>
<path d="M4357 1723 c-14 -14 -35 -18 -100 -18 -86 -1 -116 -11 -141 -47 -23
-33 -20 -41 9 -22 25 17 43 16 171 -2 28 -4 51 -1 73 10 36 19 41 30 9 21 -22
-6 -22 -6 2 15 19 16 20 20 6 16 -15 -5 -17 -2 -12 19 8 30 6 30 -17 8z m-21
-59 c-11 -8 -25 -14 -30 -14 -6 0 -4 5 4 11 12 8 9 10 -12 6 -16 -2 -25 0 -22
5 4 6 17 8 30 5 14 -2 27 0 30 5 3 5 9 6 12 3 4 -4 -2 -13 -12 -21z m-79 10
c-3 -3 -12 -4 -19 -1 -8 3 -5 6 6 6 11 1 17 -2 13 -5z"/>
<path d="M3765 1440 c-4 -6 -11 -7 -17 -4 -7 4 -8 2 -4 -5 6 -9 11 -9 22 0 14
11 18 19 10 19 -3 0 -8 -5 -11 -10z"/>
<path d="M3605 1404 c-29 -30 -18 -57 49 -119 56 -52 64 -64 60 -87 -13 -61
-151 -48 -204 20 -16 20 -20 21 -20 7 0 -28 63 -82 110 -95 33 -9 54 -9 81 -1
31 9 44 8 80 -9 24 -11 57 -20 72 -20 32 0 94 24 119 47 32 28 19 31 -31 6
-46 -23 -54 -24 -104 -13 -63 13 -80 27 -75 65 2 22 16 34 72 64 83 44 95 59
78 96 -11 24 -17 26 -45 21 -95 -19 -126 -19 -159 1 -52 30 -66 33 -83 17z
m93 -35 c47 -21 57 -22 97 -11 68 18 69 18 72 1 3 -10 -9 -21 -36 -31 -25 -10
-45 -27 -53 -43 -9 -21 -17 -25 -42 -23 -23 2 -32 9 -34 25 -3 21 -36 54 -77
79 -20 11 -12 39 9 30 6 -2 35 -15 64 -27z"/>
<path d="M3890 1416 c0 -2 8 -10 18 -17 15 -13 16 -12 3 4 -13 16 -21 21 -21
13z"/>
<path d="M3495 1281 c-3 -5 -2 -12 3 -15 5 -3 9 1 9 9 0 17 -3 19 -12 6z"/>
<path d="M5385 2061 c-3 -5 -2 -12 3 -15 5 -3 9 1 9 9 0 17 -3 19 -12 6z"/>
</g>
</svg>
